<?xml version="1.0" standalone="no"?>
<!DOCTYPE svg PUBLIC "-//W3C//DTD SVG 20010904//EN"
 "http://www.w3.org/TR/2001/REC-SVG-20010904/DTD/svg10.dtd">
<svg version="1.0" xmlns="http://www.w3.org/2000/svg"
 width="666.000000pt" height="375.000000pt" viewBox="0 0 666.000000 375.000000"
 preserveAspectRatio="xMidYMid meet">

<g transform="translate(0.000000,375.000000) scale(0.100000,-0.100000)"
fill="#000000" stroke="none">
<path d="M1253 3243 c-7 -2 -13 -8 -13 -12 0 -8 -96 -184 -167 -306 -41 -72
-48 -83 -163 -290 -37 -66 -80 -142 -95 -170 -56 -99 -65 -115 -101 -182 -20
-37 -63 -114 -96 -170 -32 -56 -58 -104 -58 -107 0 -3 -18 -35 -40 -71 -22
-36 -40 -67 -40 -70 0 -2 -22 -43 -50 -91 -28 -48 -50 -88 -50 -90 0 -2 -25
-44 -55 -94 -58 -96 -66 -127 -37 -152 9 -9 85 -51 167 -93 83 -43 177 -92
210 -110 59 -32 173 -92 405 -212 63 -33 150 -79 193 -102 42 -22 90 -41 105
-41 17 0 64 23 119 58 50 31 145 90 210 131 65 41 186 118 268 172 83 53 176
112 208 130 180 105 176 93 86 249 -38 67 -86 147 -105 176 -18 30 -34 56 -34
58 0 2 -30 55 -66 117 -37 63 -77 132 -89 154 -12 22 -41 71 -64 109 -22 37
-41 70 -41 72 0 2 -19 34 -42 71 -23 38 -92 156 -153 263 -97 169 -155 268
-202 345 -7 11 -15 27 -19 35 -4 8 -29 50 -56 92 -26 43 -48 82 -48 86 0 5
-10 18 -23 30 -23 22 -39 25 -64 15z m117 -748 c18 -33 41 -74 51 -92 10 -18
35 -63 55 -100 20 -37 40 -72 44 -78 18 -24 50 -87 50 -98 0 -7 -44 -41 -97
-77 -54 -36 -102 -69 -108 -73 -9 -7 -126 -88 -248 -172 -41 -28 -41 -39 -1
-49 14 -4 45 -15 68 -26 22 -10 104 -44 181 -75 77 -31 158 -64 180 -74 22 -9
68 -28 103 -42 34 -13 61 -28 59 -33 -3 -9 -105 -68 -212 -122 l-51 -26 -319
162 c-176 89 -321 163 -323 165 -3 3 129 234 175 307 12 21 23 40 23 43 0 3
11 22 23 43 13 20 37 60 52 87 62 109 108 193 142 255 19 36 49 88 66 117 35
59 30 61 87 -42z"/>
<path d="M2831 2675 c-84 -21 -161 -66 -207 -122 -94 -114 -110 -281 -42 -423
34 -72 155 -146 299 -184 106 -28 214 -67 246 -89 80 -55 67 -178 -23 -223
-61 -30 -193 -27 -259 6 -57 28 -90 72 -100 130 l-7 40 -120 0 -120 0 7 -72
c9 -92 44 -168 105 -229 91 -91 190 -124 370 -123 102 1 136 5 184 23 120 43
175 88 223 181 26 51 28 64 28 165 0 102 -2 114 -30 168 -54 108 -123 152
-330 211 -114 33 -192 67 -223 97 -54 53 -56 150 -3 202 26 26 38 30 103 35
41 2 92 -1 118 -8 58 -16 106 -66 117 -123 l9 -42 123 -3 124 -3 -5 55 c-7 84
-66 196 -130 247 -58 46 -99 65 -178 85 -68 17 -207 16 -279 -1z"/>
<path d="M3963 2568 c-37 -57 -72 -111 -78 -120 -5 -9 -44 -70 -86 -135 -41
-65 -121 -191 -177 -279 l-102 -161 0 -117 0 -116 280 0 279 0 3 -122 3 -123
120 0 120 0 3 123 3 122 48 0 c60 0 61 2 61 126 l0 94 -55 0 -55 0 -2 403 -3
402 -148 3 -147 3 -67 -103z m117 -462 l0 -244 -155 -1 c-168 -1 -175 1 -135
52 11 14 20 27 20 30 0 2 29 48 65 102 36 53 65 98 65 100 0 2 15 25 33 51 18
27 47 73 65 102 17 28 34 52 37 52 3 0 5 -110 5 -244z"/>
<path d="M4600 2030 l0 -641 123 3 122 3 3 263 2 262 220 0 220 0 0 110 0 110
-220 0 -220 0 0 150 0 150 235 0 235 0 0 115 0 115 -360 0 -360 0 0 -640z"/>
<path d="M5457 2663 c-4 -3 -7 -55 -7 -115 l0 -108 165 0 165 0 0 -525 0 -526
128 3 127 3 3 522 2 523 163 2 162 3 0 110 0 110 -451 3 c-248 1 -454 -1 -457
-5z"/>
</g>
</svg>
