<?xml version="1.0" standalone="no"?>
<!DOCTYPE svg PUBLIC "-//W3C//DTD SVG 20010904//EN"
 "http://www.w3.org/TR/2001/REC-SVG-20010904/DTD/svg10.dtd">
<svg version="1.0" xmlns="http://www.w3.org/2000/svg"
 width="1024.000000pt" height="576.000000pt" viewBox="0 0 1024.000000 576.000000"
 preserveAspectRatio="xMidYMid meet">

<g transform="translate(0.000000,576.000000) scale(0.100000,-0.100000)"
fill="#000000" stroke="none">
<path d="M1923 4978 c-11 -13 -53 -84 -93 -158 -40 -74 -124 -223 -185 -330
-62 -107 -247 -438 -413 -736 -165 -297 -336 -603 -380 -680 -43 -76 -123
-220 -177 -319 -54 -99 -136 -243 -182 -320 -90 -152 -100 -186 -60 -222 31
-29 50 -38 1012 -540 248 -129 486 -254 530 -278 99 -52 126 -59 167 -42 32
13 638 393 938 588 80 52 217 137 304 189 164 98 202 133 191 177 -3 12 -87
160 -187 330 -99 169 -229 391 -287 493 -59 102 -203 349 -320 550 -117 201
-277 475 -355 610 -217 373 -396 673 -413 693 -22 24 -65 21 -90 -5z m455
-1635 c23 -39 42 -76 42 -81 0 -5 -33 -31 -72 -57 -165 -109 -699 -477 -696
-480 2 -2 143 -60 313 -130 565 -231 676 -278 673 -280 -2 -1 -95 -53 -208
-115 l-204 -113 -236 118 c-129 64 -353 177 -498 252 l-262 134 24 42 c305
528 415 719 548 957 88 157 174 309 190 338 l30 53 157 -283 c86 -156 176
-315 199 -355z"/>
<path d="M4480 4134 c-95 -11 -194 -40 -276 -79 -105 -50 -185 -127 -233 -223
-113 -225 -83 -500 73 -655 85 -85 167 -122 494 -222 194 -59 263 -88 299
-127 50 -53 69 -159 39 -217 -20 -38 -81 -90 -135 -115 -69 -31 -231 -30 -325
3 -119 41 -196 140 -196 253 l0 28 -190 0 -190 0 0 -44 c0 -24 7 -80 15 -123
35 -183 145 -324 317 -407 125 -60 198 -76 358 -83 114 -4 152 -2 240 17 242
50 394 168 462 358 28 81 36 265 15 349 -40 153 -135 273 -267 335 -41 20
-160 61 -265 92 -218 65 -317 108 -367 160 -81 84 -76 235 11 309 41 34 94 48
189 49 171 1 281 -63 317 -184 8 -28 15 -60 15 -70 0 -17 13 -18 190 -18 l190
0 0 36 c0 57 -30 174 -61 241 -77 163 -229 276 -427 317 -73 15 -236 26 -292
20z"/>
<path d="M6047 3878 c-80 -123 -255 -398 -391 -611 l-246 -389 0 -184 0 -184
430 0 430 0 0 -185 0 -185 190 0 190 0 0 185 0 185 83 0 84 0 6 122 c4 66 7
147 7 180 l0 58 -90 0 -90 0 0 615 0 615 -229 0 -229 0 -145 -222z m225 -633
l-2 -375 -241 0 -241 0 23 39 c63 102 455 710 459 710 3 1 4 -168 2 -374z"/>
<path d="M7070 3136 c0 -530 -3 -971 -6 -980 -5 -14 16 -16 195 -16 l201 0 0
400 0 400 329 0 c182 0 332 3 334 8 3 4 8 82 12 175 l8 167 -342 0 -341 0 0
230 0 230 365 0 365 0 0 175 0 175 -560 0 -560 0 0 -964z"/>
<path d="M8380 3925 l0 -175 250 0 250 0 0 -805 0 -805 200 0 200 0 0 805 0
805 255 0 255 0 0 175 0 175 -705 0 -705 0 0 -175z"/>
</g>
</svg>
